<svg width="26" height="30" viewBox="0 0 26 30" fill="none" xmlns="http://www.w3.org/2000/svg">
<path d="M25.5748 27.2786L14.1851 13.5508V9.95115H21.8297C22.4814 9.95115 23.0149 9.41781 23.0149 8.76597V3.72893C23.0149 3.07709 22.4814 2.54375 21.8297 2.54375H14.1851V1.96302C14.1851 1.30792 13.655 0.777832 12.9999 0.777832C12.3448 0.777832 11.8147 1.30792 11.8147 1.96302C11.8147 2.14463 11.8147 13.9353 11.8147 13.5508L0.425221 27.2786C0.128924 27.6341 0.0696072 28.1201 0.259133 28.5348C0.460811 28.9615 0.875452 29.2223 1.33784 29.2223H24.6622C25.1243 29.2223 25.5392 28.9615 25.7406 28.5348C25.9304 28.1201 25.8711 27.6341 25.5748 27.2786Z" fill="#303130"/>
</svg>
