<svg width="32" height="32" viewBox="0 0 32 32" fill="none" xmlns="http://www.w3.org/2000/svg">
<path d="M25.3334 16.0004H6.66672C6.23605 16.0004 5.82672 15.9151 5.43872 15.7871L6.43339 25.7324C6.52962 26.7204 6.99082 27.6369 7.72684 28.3029C8.46286 28.9689 9.42079 29.3365 10.4134 29.3338H21.5867C22.5793 29.3365 23.5373 28.9689 24.2733 28.3029C25.0093 27.6369 25.4705 26.7204 25.5667 25.7324L26.5614 15.7884C26.1721 15.9151 25.7641 16.0004 25.3334 16.0004Z" fill="#A2E2C5"/>
<path d="M25.3334 16H6.66675C5.60588 16 4.58847 15.5786 3.83832 14.8284C3.08818 14.0783 2.66675 13.0609 2.66675 12C2.66675 10.9391 3.08818 9.92172 3.83832 9.17157C4.58847 8.42143 5.60588 8 6.66675 8H25.3334C26.3943 8 27.4117 8.42143 28.1618 9.17157C28.912 9.92172 29.3334 10.9391 29.3334 12C29.3334 13.0609 28.912 14.0783 28.1618 14.8284C27.4117 15.5786 26.3943 16 25.3334 16Z" fill="#54CA94"/>
<path d="M25.3334 16H6.66675C5.60588 16 4.58847 15.5786 3.83832 14.8284C3.08818 14.0783 2.66675 13.0609 2.66675 12C2.66675 10.9391 3.08818 9.92172 3.83832 9.17157C4.58847 8.42143 5.60588 8 6.66675 8H25.3334C26.3943 8 27.4117 8.42143 28.1618 9.17157C28.912 9.92172 29.3334 10.9391 29.3334 12C29.3334 13.0609 28.912 14.0783 28.1618 14.8284C27.4117 15.5786 26.3943 16 25.3334 16Z" fill="#54CA94"/>
<path d="M20.5093 8.00062H23.4906L21.1933 3.40462C21.0352 3.08813 20.7579 2.8474 20.4223 2.73537C20.2562 2.67991 20.0807 2.65771 19.906 2.67005C19.7312 2.68239 19.5607 2.72902 19.4039 2.80729C19.0875 2.96536 18.8467 3.24268 18.7347 3.57825C18.6227 3.91381 18.6485 4.28013 18.8066 4.59662L20.5093 8.00062ZM11.4906 8.00062L13.1933 4.59662L13.1959 4.59129C13.3533 4.27445 13.3784 3.90807 13.2656 3.57275C13.1528 3.23744 12.9115 2.96065 12.5946 2.80329C12.2778 2.64593 11.9114 2.62088 11.5761 2.73365C11.2408 2.84642 10.964 3.08778 10.8066 3.40462L8.50928 8.00062H11.4906ZM13.3333 18.6673C12.9797 18.6673 12.6405 18.8078 12.3905 19.0578C12.1404 19.3079 11.9999 19.647 11.9999 20.0006V22.6673C11.9999 23.0209 12.1404 23.3601 12.3905 23.6101C12.6405 23.8601 12.9797 24.0006 13.3333 24.0006C13.6869 24.0006 14.026 23.8601 14.2761 23.6101C14.5261 23.3601 14.6666 23.0209 14.6666 22.6673V20.0006C14.6666 19.647 14.5261 19.3079 14.2761 19.0578C14.026 18.8078 13.6869 18.6673 13.3333 18.6673ZM18.6666 18.6673C18.313 18.6673 17.9739 18.8078 17.7238 19.0578C17.4738 19.3079 17.3333 19.647 17.3333 20.0006V22.6673C17.3333 23.0209 17.4738 23.3601 17.7238 23.6101C17.9739 23.8601 18.313 24.0006 18.6666 24.0006C19.0202 24.0006 19.3594 23.8601 19.6094 23.6101C19.8595 23.3601 19.9999 23.0209 19.9999 22.6673V20.0006C19.9999 19.647 19.8595 19.3079 19.6094 19.0578C19.3594 18.8078 19.0202 18.6673 18.6666 18.6673Z" fill="#206545"/>
</svg>
