<svg width="32" height="32" viewBox="0 0 32 32" fill="none" xmlns="http://www.w3.org/2000/svg">
<path d="M28.5748 28.2785L17.1851 14.5508V10.9511H24.8297C25.4814 10.9511 26.0149 10.4177 26.0149 9.76591V4.72887C26.0149 4.07703 25.4814 3.54369 24.8297 3.54369H17.1851V2.96296C17.1851 2.30786 16.655 1.77777 15.9999 1.77777C15.3448 1.77777 14.8147 2.30786 14.8147 2.96296C14.8147 3.14457 14.8147 14.9352 14.8147 14.5508L3.42522 28.2785C3.12892 28.634 3.06961 29.12 3.25913 29.5348C3.46081 29.9614 3.87545 30.2222 4.33784 30.2222H27.6622C28.1243 30.2222 28.5392 29.9614 28.7406 29.5348C28.9304 29.12 28.8711 28.634 28.5748 28.2785Z" fill="#E1E5E3"/>
</svg>
