<svg width="32" height="32" viewBox="0 0 32 32" fill="none" xmlns="http://www.w3.org/2000/svg">
<path d="M24 29.3333H8C6.93946 29.3323 5.92266 28.9105 5.17274 28.1606C4.42283 27.4107 4.00106 26.3939 4 25.3333V13.6667C3.99989 13.0968 4.12153 12.5336 4.35677 12.0146C4.59201 11.4956 4.93541 11.0328 5.364 10.6573L13.3653 3.65733C14.0961 3.02212 15.0317 2.6723 16 2.6723C16.9683 2.6723 17.9039 3.02212 18.6347 3.65733L26.6347 10.6573C27.0635 11.0327 27.4072 11.4954 27.6426 12.0144C27.8781 12.5334 27.9999 13.0967 28 13.6667V25.3333C27.9989 26.3939 27.5772 27.4107 26.8273 28.1606C26.0773 28.9105 25.0605 29.3323 24 29.3333Z" fill="#303130"/>
<path d="M21.3334 29.3333H10.6667V20C10.6667 18.9391 11.0881 17.9217 11.8383 17.1716C12.5884 16.4214 13.6058 16 14.6667 16H17.3334C18.3942 16 19.4116 16.4214 20.1618 17.1716C20.9119 17.9217 21.3334 18.9391 21.3334 20V29.3333Z" fill="#F8F9F9"/>
</svg>
