<svg width="32" height="32" viewBox="0 0 32 32" fill="none" xmlns="http://www.w3.org/2000/svg">
<path d="M28 7.66H23.58C23.4 7.66 23.23 7.56 23.14 7.4L21.92 5.18C21.6173 4.631 21.1727 4.17339 20.6326 3.85499C20.0926 3.53659 19.4769 3.36909 18.85 3.37H13.15C12.5231 3.36909 11.9074 3.53659 11.3674 3.85499C10.8273 4.17339 10.3827 4.631 10.08 5.18L8.86 7.4C8.77 7.56 8.6 7.66 8.42 7.66H4C2.07 7.66 0.5 9.23 0.5 11.16V25.13C0.5 27.06 2.07 28.63 4 28.63H28C29.93 28.63 31.5 27.06 31.5 25.13V11.16C31.5 9.23 29.93 7.66 28 7.66ZM16 24.64C12.42 24.64 9.5 21.73 9.5 18.14C9.5 14.56 12.42 11.64 16 11.64C19.58 11.64 22.5 14.56 22.5 18.14C22.5 21.73 19.58 24.64 16 24.64Z" fill="#E1E5E3"/>
<path d="M16 21.64C17.933 21.64 19.5 20.073 19.5 18.14C19.5 16.207 17.933 14.64 16 14.64C14.067 14.64 12.5 16.207 12.5 18.14C12.5 20.073 14.067 21.64 16 21.64Z" fill="#E1E5E3"/>
</svg>
