<svg width="34" height="34" viewBox="0 0 34 34" fill="none" xmlns="http://www.w3.org/2000/svg">
<path d="M17 12.75C15.8792 12.75 14.7836 13.0823 13.8518 13.705C12.9199 14.3277 12.1936 15.2127 11.7647 16.2481C11.3358 17.2836 11.2235 18.423 11.4422 19.5222C11.6608 20.6214 12.2005 21.6311 12.993 22.4236C13.7855 23.2161 14.7952 23.7558 15.8945 23.9745C16.9937 24.1931 18.1331 24.0809 19.1685 23.652C20.204 23.2231 21.089 22.4968 21.7116 21.5649C22.3343 20.633 22.6666 19.5374 22.6666 18.4167C22.6666 16.9138 22.0696 15.4724 21.0069 14.4097C19.9442 13.347 18.5029 12.75 17 12.75ZM14.7333 16.7167C14.3655 17.2071 14.1666 17.8036 14.1666 18.4167V19.125H12.75V18.4167C12.7464 17.4965 13.045 16.6006 13.6 15.8667L14.0321 15.3L15.1583 16.1571L14.7333 16.7167ZM17.7083 15.5833H17C16.812 15.5828 16.6245 15.6018 16.4404 15.64L15.7321 15.7888L15.4275 14.4075L16.1358 14.2517C16.42 14.1927 16.7097 14.1642 17 14.1667H17.7083V15.5833Z" fill="black"/>
<path d="M28.625 8.25H24.7575L22.9583 5.57958C22.6365 5.096 22.2008 4.699 21.6894 4.42354C21.178 4.14808 20.6067 4.00263 20.0258 4H13.1408C12.56 4.00263 11.9887 4.14808 11.4773 4.42354C10.9659 4.699 10.5301 5.096 10.2083 5.57958L8.40917 8.25H4.54167C3.60236 8.25 2.70152 8.62314 2.03733 9.28733C1.37314 9.95152 1 10.8524 1 11.7917V25.9583C1 26.8976 1.37314 27.7985 2.03733 28.4627C2.70152 29.1269 3.60236 29.5 4.54167 29.5H28.625C29.5643 29.5 30.4651 29.1269 31.1293 28.4627C31.7935 27.7985 32.1667 26.8976 32.1667 25.9583V11.7917C32.1667 10.8524 31.7935 9.95152 31.1293 9.28733C30.4651 8.62314 29.5643 8.25 28.625 8.25ZM16.5833 25.25C15.1824 25.25 13.8129 24.8346 12.648 24.0562C11.4832 23.2779 10.5753 22.1716 10.0392 20.8773C9.50307 19.583 9.36279 18.1588 9.6361 16.7848C9.90942 15.4107 10.584 14.1486 11.5747 13.158C12.5653 12.1674 13.8274 11.4927 15.2014 11.2194C16.5755 10.9461 17.9997 11.0864 19.294 11.6225C20.5883 12.1586 21.6946 13.0665 22.4729 14.2314C23.2512 15.3962 23.6667 16.7657 23.6667 18.1667C23.6667 20.0453 22.9204 21.847 21.592 23.1753C20.2636 24.5037 18.462 25.25 16.5833 25.25Z" fill="black"/>
</svg>
