<svg width="22" height="24" viewBox="0 0 22 24" fill="none" xmlns="http://www.w3.org/2000/svg">
<g id="Calender">
<g id="Group">
<path id="Vector" d="M4.5 4.5H18C18.831 4.5 19.5 5.169 19.5 6V9.75H3V6C3 5.169 3.669 4.5 4.5 4.5Z" fill="#F47068"/>
<path id="Vector_2" d="M3 9V19.5C3 20.331 3.669 21 4.5 21H18C18.831 21 19.5 20.331 19.5 19.5V9H3Z" fill="#E1E5E3"/>
<path id="Vector_3" d="M7.5 3.75C7.5 3.33579 7.16421 3 6.75 3C6.33579 3 6 3.33579 6 3.75V6.75C6 7.16421 6.33579 7.5 6.75 7.5C7.16421 7.5 7.5 7.16421 7.5 6.75V3.75Z" fill="#303130"/>
<path id="Vector_4" d="M16.5 3.75C16.5 3.33579 16.1642 3 15.75 3C15.3358 3 15 3.33579 15 3.75V6.75C15 7.16421 15.3358 7.5 15.75 7.5C16.1642 7.5 16.5 7.16421 16.5 6.75V3.75Z" fill="#303130"/>
<path id="Vector_5" d="M16.5 10.5H15V12H16.5V10.5Z" fill="#C6CDCA"/>
<path id="Vector_6" d="M13.5 10.5H12V12H13.5V10.5Z" fill="#C6CDCA"/>
<path id="Vector_7" d="M10.5 10.5H9V12H10.5V10.5Z" fill="#C6CDCA"/>
<path id="Vector_8" d="M7.5 10.5H6V12H7.5V10.5Z" fill="#C6CDCA"/>
<path id="Vector_9" d="M16.5 13.5H15V15H16.5V13.5Z" fill="#C6CDCA"/>
<path id="Vector_10" d="M13.5 13.5H12V15H13.5V13.5Z" fill="#C6CDCA"/>
<path id="Vector_11" d="M10.5 13.5H9V15H10.5V13.5Z" fill="#C6CDCA"/>
<path id="Vector_12" d="M7.5 13.5H6V15H7.5V13.5Z" fill="#C6CDCA"/>
<path id="Vector_13" d="M13.5 16.5H12V18H13.5V16.5Z" fill="#C6CDCA"/>
<path id="Vector_14" d="M10.5 16.5H9V18H10.5V16.5Z" fill="#C6CDCA"/>
<path id="Vector_15" d="M7.5 16.5H6V18H7.5V16.5Z" fill="#C6CDCA"/>
</g>
</g>
</svg>
