<svg width="337" height="24" viewBox="0 0 337 24" fill="none" xmlns="http://www.w3.org/2000/svg">
<path d="M15 5L8.14142 11.8586C8.06332 11.9367 8.06332 12.0633 8.14142 12.1414L15 19" stroke="#F8F9F9" stroke-width="2" stroke-linecap="round"/>
<path d="M333 21V9.53499L333.445 9.83499C333.666 9.98218 333.936 10.0357 334.196 9.98374C334.456 9.9318 334.685 9.77865 334.832 9.55799C334.979 9.33733 335.033 9.06723 334.981 8.80712C334.929 8.54701 334.776 8.31818 334.555 8.17099L325.555 2.17099C325.391 2.06135 325.198 2.00284 325 2.00284C324.802 2.00284 324.609 2.06135 324.445 2.17099L315.445 8.17099C315.224 8.31818 315.071 8.54701 315.019 8.80712C314.994 8.93591 314.993 9.06851 315.019 9.19735C315.044 9.32618 315.095 9.44873 315.168 9.55799C315.241 9.66725 315.335 9.76108 315.444 9.83413C315.553 9.90718 315.675 9.95802 315.804 9.98374C316.064 10.0357 316.334 9.98218 316.555 9.83499L317 9.53499V21C317 21.2652 317.105 21.5196 317.293 21.7071C317.48 21.8946 317.735 22 318 22H332C332.265 22 332.52 21.8946 332.707 21.7071C332.895 21.5196 333 21.2652 333 21ZM331 20H319V8.19999L325 4.19999L331 8.19999V20Z" fill="#F8F9F9"/>
</svg>
