<svg width="24" height="24" viewBox="0 0 24 24" fill="none" xmlns="http://www.w3.org/2000/svg">
<g id="Home">
<path id="Vector" d="M19.9999 21V9.53499L20.4449 9.83499C20.6655 9.98218 20.9356 10.0357 21.1957 9.98374C21.4559 9.9318 21.6847 9.77865 21.8319 9.55799C21.9791 9.33733 22.0326 9.06723 21.9806 8.80712C21.9287 8.54701 21.7755 8.31818 21.5549 8.17099L12.5549 2.17099C12.3906 2.06135 12.1974 2.00284 11.9999 2.00284C11.8023 2.00284 11.6092 2.06135 11.4449 2.17099L2.44488 8.17099C2.22422 8.31818 2.07107 8.54701 2.01912 8.80712C1.9934 8.93591 1.9933 9.06851 2.01882 9.19735C2.04435 9.32618 2.095 9.44873 2.16788 9.55799C2.24076 9.66725 2.33445 9.76108 2.4436 9.83413C2.55275 9.90718 2.67522 9.95802 2.80401 9.98374C3.06412 10.0357 3.33422 9.98218 3.55488 9.83499L3.99988 9.53499V21C3.99988 21.2652 4.10524 21.5196 4.29277 21.7071C4.48031 21.8946 4.73466 22 4.99988 22H18.9999C19.2651 22 19.5195 21.8946 19.707 21.7071C19.8945 21.5196 19.9999 21.2652 19.9999 21ZM17.9999 20H5.99988V8.19999L11.9999 4.19999L17.9999 8.19999V20Z" fill="#303130"/>
</g>
</svg>
