<svg width="24" height="24" viewBox="0 0 24 24" fill="none" xmlns="http://www.w3.org/2000/svg">
<path d="M12.0208 0.000895201C11.7889 -0.0107226 11.5631 0.09137 11.3851 0.270469L2.74505 8.97013C2.52663 9.19039 2.40002 9.51659 2.40002 9.86051V20.8801C2.40002 22.1476 3.27106 23.2 4.32006 23.2H19.6801C20.7291 23.2 21.6 22.1476 21.6 20.8801V9.86051C21.6 9.51658 21.4738 9.19041 21.255 8.97013L12.615 0.270469C12.4481 0.101813 12.2384 0.00669534 12.0208 0.000895201Z" fill="#DBFFFD"/>
<path d="M12.0001 0C11.2726 0 10.5447 0.309553 9.97489 0.925917L0.327582 11.3027C-0.0817338 11.7423 -0.111508 12.4913 0.261037 12.9744C0.632902 13.4584 1.26638 13.4935 1.67498 13.0529C4.89131 9.59162 8.10822 6.13059 11.3242 2.66923C11.7129 2.24886 12.287 2.24886 12.6757 2.66923C15.8918 6.13046 19.1086 9.59177 22.3251 13.0529C22.7337 13.4935 23.367 13.4584 23.7389 12.9744C24.1115 12.4913 24.0817 11.7423 23.6725 11.3027L14.025 0.925917C13.4552 0.309553 12.7276 0 12.0001 0Z" fill="#00A89E"/>
<path d="M8.80036 23.2C8.80036 23.2 8.79999 17.1624 8.79999 14.6666C8.79999 14.0775 9.27752 13.6 9.86661 13.6H14.1334C14.7223 13.6002 15.1996 14.0777 15.1996 14.6666C15.1999 17.1555 15.2 23.2 15.2 23.2H8.80036Z" fill="#00DBCE"/>
</svg>
