<svg width="24" height="24" viewBox="0 0 24 24" fill="none" xmlns="http://www.w3.org/2000/svg">
<g id="Location">
<path id="Vector" d="M12 1.59998C9.87827 1.59998 7.84344 2.44283 6.34315 3.94312C4.84285 5.44341 4 7.47824 4 9.59998C4 15.432 9.744 22.4 12 22.4C14.256 22.4 20 15.432 20 9.59998C20 8.5494 19.7931 7.50911 19.391 6.53851C18.989 5.5679 18.3997 4.68599 17.6569 3.94312C16.914 3.20025 16.0321 2.61098 15.0615 2.20894C14.0909 1.8069 13.0506 1.59998 12 1.59998ZM8 9.59998C8 8.80885 8.2346 8.03549 8.67412 7.37769C9.11365 6.7199 9.73836 6.20721 10.4693 5.90446C11.2002 5.60171 12.0044 5.52249 12.7804 5.67683C13.5563 5.83118 14.269 6.21214 14.8284 6.77155C15.3878 7.33096 15.7688 8.04369 15.9231 8.81961C16.0775 9.59554 15.9983 10.3998 15.6955 11.1307C15.3928 11.8616 14.8801 12.4863 14.2223 12.9259C13.5645 13.3654 12.7911 13.6 12 13.6C10.9391 13.6 9.92172 13.1785 9.17157 12.4284C8.42143 11.6783 8 10.6608 8 9.59998Z" fill="#38B37B"/>
</g>
</svg>
