<svg width="24" height="24" viewBox="0 0 24 24" fill="none" xmlns="http://www.w3.org/2000/svg">
<path d="M22 7V17C22 17.7956 21.6839 18.5587 21.1213 19.1213C20.5587 19.6839 19.7956 20 19 20H4.99995C4.2043 20 3.44124 19.6839 2.87863 19.1213C2.31602 18.5587 1.99995 17.7956 1.99995 17V7C1.99593 6.65915 2.05352 6.32038 2.16995 6C2.37684 5.41484 2.76012 4.90826 3.26697 4.55006C3.77383 4.19186 4.3793 3.99968 4.99995 4H19C19.6206 3.99968 20.2261 4.19186 20.7329 4.55006C21.2398 4.90826 21.6231 5.41484 21.83 6C21.9464 6.32038 22.004 6.65915 22 7Z" fill="#F9D58B"/>
<path d="M21.8299 6L13.8299 11.88C13.3115 12.2671 12.6819 12.4763 12.0349 12.4763C11.3879 12.4763 10.7583 12.2671 10.2399 11.88L2.16992 6C2.37681 5.41484 2.76009 4.90826 3.26694 4.55006C3.77379 4.19186 4.37927 3.99968 4.99992 4H18.9999C19.6206 3.99968 20.226 4.19186 20.7329 4.55006C21.2398 4.90826 21.623 5.41484 21.8299 6Z" fill="#F7C05F"/>
</svg>
