<svg width="27" height="26" viewBox="0 0 27 26" fill="none" xmlns="http://www.w3.org/2000/svg">
<g opacity="0.2" clip-path="url(#clip0_291_1952)">
<path fill-rule="evenodd" clip-rule="evenodd" d="M10.0333 23.4C9.93064 23.4 9.82751 23.3818 9.72914 23.3449L2.79581 20.7449C2.45737 20.618 2.23334 20.2947 2.23334 19.9333V3.46663C2.23334 3.18236 2.37287 2.9163 2.60643 2.75424C2.84 2.5926 3.13814 2.55534 3.4042 2.655L10.0333 5.14104V23.4Z" fill="#DBFFFD"/>
<path fill-rule="evenodd" clip-rule="evenodd" d="M16.9667 2.59998V20.8589L10.3376 23.3449C10.2392 23.3818 10.1361 23.4 10.0334 23.4V5.14105L16.6625 2.65502C16.7609 2.61818 16.864 2.59998 16.9667 2.59998Z" fill="#00A89E"/>
<path fill-rule="evenodd" clip-rule="evenodd" d="M16.9667 2.59998C17.0694 2.59998 17.1725 2.61818 17.2709 2.65502L24.2042 5.25501C24.5427 5.38198 24.7667 5.70524 24.7667 6.06664V22.5333C24.7667 22.8176 24.6271 23.0836 24.3936 23.2457C24.16 23.4073 23.8619 23.4446 23.5958 23.3449L16.9667 20.8589V2.59998Z" fill="#00DBCE"/>
</g>
<defs>
<clipPath id="clip0_291_1952">
<rect width="26" height="26" fill="white" transform="translate(0.5)"/>
</clipPath>
</defs>
</svg>
