<svg width="27" height="26" viewBox="0 0 27 26" fill="none" xmlns="http://www.w3.org/2000/svg">
<g clip-path="url(#clip0_696_1594)">
<path fill-rule="evenodd" clip-rule="evenodd" d="M10.0334 23.4C9.9307 23.4 9.82757 23.3818 9.7292 23.345L2.79587 20.745C2.45743 20.618 2.2334 20.2947 2.2334 19.9333V3.46666C2.2334 3.18239 2.37293 2.91634 2.6065 2.75427C2.84006 2.59264 3.1382 2.55537 3.40426 2.65503L10.0334 5.14107V23.4Z" fill="#DBFFFD"/>
<path fill-rule="evenodd" clip-rule="evenodd" d="M16.9675 2.60001V20.8589L10.3384 23.345C10.24 23.3818 10.1369 23.4 10.0342 23.4V5.14108L16.6633 2.65505C16.7617 2.61821 16.8648 2.60001 16.9675 2.60001Z" fill="#00A89E"/>
<path fill-rule="evenodd" clip-rule="evenodd" d="M16.9668 2.60001C17.0695 2.60001 17.1726 2.61821 17.271 2.65505L24.2043 5.25505C24.5428 5.38201 24.7668 5.70527 24.7668 6.06667V22.5333C24.7668 22.8176 24.6273 23.0837 24.3937 23.2457C24.1601 23.4074 23.862 23.4446 23.5959 23.345L16.9668 20.8589V2.60001Z" fill="#00DBCE"/>
</g>
<defs>
<clipPath id="clip0_696_1594">
<rect width="26" height="26" fill="white" transform="translate(0.5)"/>
</clipPath>
</defs>
</svg>
