<svg width="15" height="18" viewBox="0 0 15 18" fill="none" xmlns="http://www.w3.org/2000/svg">
<g id="people">
<g id="_icons">
<path id="Vector" d="M11.2502 4.68016C11.2502 4.92016 11.2502 5.24016 11.1669 5.48016C10.8336 6.76016 9.83358 7.72016 8.50024 8.04016C8.16691 8.20016 7.83358 8.20016 7.50024 8.20016C5.41691 8.20016 3.75024 6.60016 3.75024 4.68016C3.75024 2.76016 5.41691 1.16016 7.50024 1.16016C9.58358 1.16016 11.2502 2.76016 11.2502 4.68016Z" fill="#919C97"/>
<path id="Vector_2" d="M13.6669 16.04C13.1669 16.68 12.5002 17 11.6669 17H3.33358C2.58358 17 1.83358 16.68 1.41691 16.04C1.25024 15.8 1.08358 15.56 1.00024 15.24C0.833577 14.84 0.833577 14.28 1.00024 13.88L1.41691 12.36C1.91691 10.44 3.75024 9 5.83358 9H9.16691C11.2502 9 13.0836 10.44 13.6669 12.44L14.0836 13.96C14.3336 14.68 14.1669 15.48 13.6669 16.04Z" fill="#78827D"/>
<path id="Vector_3" opacity="0.1" d="M8.5 8.03975C8.16667 8.19975 7.83333 8.19975 7.5 8.19975V1.23975C9.58333 1.23975 11.25 2.83975 11.25 4.75975C11.25 4.99975 11.25 5.31975 11.1667 5.55975C10.8333 6.75975 9.83333 7.71975 8.5 8.03975ZM13.6667 16.0397C13.1667 16.6797 12.5 16.9997 11.6667 16.9997H7.5V8.99975H9.16667C11.25 8.99975 13.0833 10.4397 13.6667 12.4397L14.0833 13.9597C14.3333 14.6797 14.1667 15.4797 13.6667 16.0397Z" fill="white"/>
</g>
</g>
</svg>
