<svg width="22" height="22" viewBox="0 0 22 22" fill="none" xmlns="http://www.w3.org/2000/svg">
<g id="money" clip-path="url(#clip0_2522_4497)">
<path id="Vector" d="M11 22C17.0751 22 22 17.0751 22 11C22 4.92487 17.0751 0 11 0C4.92487 0 0 4.92487 0 11C0 17.0751 4.92487 22 11 22Z" fill="#FFD15C"/>
<path id="Vector_2" d="M11 19.3415C15.607 19.3415 19.3417 15.6068 19.3417 10.9999C19.3417 6.39289 15.607 2.6582 11 2.6582C6.39302 2.6582 2.65833 6.39289 2.65833 10.9999C2.65833 15.6068 6.39302 19.3415 11 19.3415Z" fill="#F8B64C"/>
<path id="Vector_3" d="M10.45 15.7665C8.98336 15.629 7.9292 15.079 7.19586 14.3457L8.29586 12.8332C8.80003 13.3832 9.5792 13.8415 10.4959 14.0248V11.8707C9.07503 11.504 7.5167 10.9998 7.5167 9.12067C7.5167 7.74567 8.6167 6.554 10.4959 6.32484V5.0415H11.7792V6.37067C12.8792 6.50817 13.8417 6.92067 14.6209 7.60817L13.5209 9.07484C13.0167 8.6165 12.4209 8.3415 11.7792 8.15817V10.0832C13.2 10.4498 14.8042 10.9998 14.8042 12.879C14.8042 14.3915 13.7959 15.5832 11.7792 15.8123V17.0498H10.4959V15.7665H10.45ZM10.45 9.7165V8.0665C9.85419 8.15817 9.48753 8.479 9.48753 8.93734C9.53336 9.304 9.90003 9.53317 10.45 9.7165ZM11.7792 12.1457V13.979C12.4667 13.8415 12.8334 13.429 12.8334 13.0165C12.7875 12.5582 12.375 12.329 11.7792 12.1457Z" fill="#FFD15C"/>
<g id="Group">
<path id="Vector_4" d="M10.7708 0.549805H11.2291V2.10814H10.7708V0.549805Z" fill="#F8B64C"/>
<path id="Vector_5" d="M10.7708 19.8916H11.2291V21.4499H10.7708V19.8916Z" fill="#F8B64C"/>
<path id="Vector_6" d="M7.74817 2.729L7.21522 1.26464L7.64591 1.10789L8.17886 2.57225L7.74817 2.729Z" fill="#F8B64C"/>
<path id="Vector_7" d="M14.3547 20.8921L13.8217 19.4277L14.2524 19.271L14.7854 20.7353L14.3547 20.8921Z" fill="#F8B64C"/>
<path id="Vector_8" d="M5.1178 4.31445L4.1161 3.12077L4.46718 2.82615L5.46888 4.01984L5.1178 4.31445Z" fill="#F8B64C"/>
<path id="Vector_9" d="M17.5024 19.1392L16.5007 17.9455L16.8518 17.6509L17.8535 18.8445L17.5024 19.1392Z" fill="#F8B64C"/>
<path id="Vector_10" d="M3.18274 6.73145L1.83322 5.95228L2.06239 5.55536L3.41191 6.33453L3.18274 6.73145Z" fill="#F8B64C"/>
<path id="Vector_11" d="M19.8988 16.4219L18.5493 15.6427L18.7785 15.2458L20.128 16.025L19.8988 16.4219Z" fill="#F8B64C"/>
<path id="Vector_12" d="M2.18658 9.69727L0.651938 9.42658L0.73155 8.97522L2.2662 9.2459L2.18658 9.69727Z" fill="#F8B64C"/>
<path id="Vector_13" d="M21.2241 13.0156L19.6894 12.7449L19.769 12.2936L21.3037 12.5643L21.2241 13.0156Z" fill="#F8B64C"/>
<g id="Group_2">
<path id="Vector_14" d="M2.26544 12.7539L0.730795 13.0246L0.651183 12.5732L2.18583 12.3025L2.26544 12.7539Z" fill="#F8B64C"/>
<path id="Vector_15" d="M21.3029 9.43506L19.7683 9.70574L19.6887 9.25437L21.2233 8.98369L21.3029 9.43506Z" fill="#F8B64C"/>
</g>
<g id="Group_3">
<path id="Vector_16" d="M3.41162 15.666L2.0621 16.4452L1.83294 16.0483L3.18245 15.2691L3.41162 15.666Z" fill="#F8B64C"/>
<path id="Vector_17" d="M20.1277 5.9751L18.7782 6.75426L18.549 6.35735L19.8985 5.57818L20.1277 5.9751Z" fill="#F8B64C"/>
</g>
<g id="Group_4">
<path id="Vector_18" d="M5.46973 17.9795L4.46803 19.1732L4.11695 18.8786L5.11864 17.6849L5.46973 17.9795Z" fill="#F8B64C"/>
<path id="Vector_19" d="M17.8541 3.15479L16.8524 4.34847L16.5013 4.05385L17.503 2.86017L17.8541 3.15479Z" fill="#F8B64C"/>
</g>
<g id="Group_5">
<path id="Vector_20" d="M8.17871 19.4277L7.64576 20.8921L7.21507 20.7354L7.74802 19.271L8.17871 19.4277Z" fill="#F8B64C"/>
<path id="Vector_21" d="M14.7852 1.26465L14.2523 2.72902L13.8216 2.57227L14.3545 1.1079L14.7852 1.26465Z" fill="#F8B64C"/>
</g>
</g>
<path id="Vector_22" opacity="0.1" d="M3.57499 11.9165C3.57499 7.3332 7.33332 3.57487 11.9167 3.57487C13.9792 3.57487 15.8583 4.3082 17.325 5.59154C15.8125 3.80404 13.5208 2.6582 11 2.6582C6.41666 2.6582 2.65833 6.41654 2.65833 10.9999C2.65833 13.5207 3.80416 15.8124 5.59166 17.3249C4.35416 15.8582 3.57499 13.979 3.57499 11.9165Z" fill="#231F20"/>
</g>
<defs>
<clipPath id="clip0_2522_4497">
<rect width="22" height="22" fill="white"/>
</clipPath>
</defs>
</svg>
