<svg width="24" height="24" viewBox="0 0 24 24" fill="none" xmlns="http://www.w3.org/2000/svg">
<path d="M8.99999 5.89L4.88999 3.82C4.58439 3.66814 4.24501 3.597 3.90415 3.61335C3.56329 3.6297 3.23228 3.733 2.94261 3.91341C2.65295 4.09382 2.41427 4.34535 2.24927 4.64407C2.08428 4.94279 1.99846 5.27875 1.99999 5.62V16.38C1.99926 16.751 2.10175 17.115 2.29602 17.4311C2.49028 17.7472 2.76864 18.003 3.09999 18.17L8.09999 20.68C8.37729 20.8143 8.68188 20.8828 8.98999 20.88C9.25521 20.88 9.50956 20.7746 9.6971 20.5871C9.88463 20.3996 9.98999 20.1452 9.98999 19.88V6.88C9.98738 6.61825 9.88225 6.36795 9.69715 6.18285C9.51205 5.99775 9.26175 5.89261 8.99999 5.89Z" fill="#303130"/>
<path d="M15.71 3.41001C15.482 3.23373 15.2054 3.13155 14.9176 3.11725C14.6297 3.10294 14.3444 3.1772 14.1 3.33001L9 5.88001V20.88C9.31228 20.8812 9.62051 20.8093 9.9 20.67L15 18.12C15.2652 18.12 15.5196 18.0147 15.7071 17.8271C15.8946 17.6396 16 17.3852 16 17.12V4.12001C16.0008 3.9884 15.9755 3.85794 15.9258 3.7361C15.876 3.61427 15.8027 3.50345 15.71 3.41001Z" fill="#606664"/>
<path d="M20.9 5.82999L15.9 3.31999C15.6227 3.18565 15.3181 3.1172 15.01 3.11999V18.12L19.12 20.19C19.3965 20.3278 19.7011 20.3997 20.01 20.4C20.3854 20.3982 20.7528 20.2908 21.07 20.09C21.3582 19.9098 21.5958 19.6592 21.7603 19.3618C21.9247 19.0643 22.0107 18.7299 22.01 18.39V7.61999C22.0098 7.2479 21.9058 6.88325 21.7097 6.56703C21.5136 6.25081 21.2332 5.99556 20.9 5.82999Z" fill="#303130"/>
</svg>
