<svg width="46" height="42" viewBox="0 0 46 42" fill="none" xmlns="http://www.w3.org/2000/svg">
<path d="M18.2767 13.1242L11.7767 11.25C11.6941 11.2259 11.6071 11.2217 11.5226 11.2379C11.4382 11.2541 11.3588 11.2901 11.2911 11.343C11.2233 11.396 11.1692 11.4643 11.133 11.5423C11.0969 11.6203 11.0799 11.7058 11.0833 11.7917V28.0417C11.0833 28.1589 11.1213 28.2729 11.1917 28.3667C11.262 28.4604 11.3608 28.5289 11.4733 28.5617L17.9733 30.4142H18.125C18.2687 30.4142 18.4064 30.3571 18.508 30.2555C18.6096 30.1539 18.6667 30.0162 18.6667 29.8725V13.6225C18.6621 13.509 18.622 13.3999 18.552 13.3105C18.482 13.221 18.3857 13.1559 18.2767 13.1242ZM25.5567 11.575L20.14 13.1242C20.0275 13.157 19.9286 13.2254 19.8583 13.3192C19.788 13.4129 19.75 13.527 19.75 13.6442V29.8942C19.75 30.0378 19.8071 30.1756 19.9086 30.2772C20.0102 30.3788 20.148 30.4358 20.2917 30.4358H20.4433L25.86 28.8867C25.9725 28.8539 26.0713 28.7854 26.1417 28.6917C26.212 28.5979 26.25 28.4839 26.25 28.3667V12.1167C26.25 12.0326 26.2304 11.9496 26.1928 11.8744C26.1552 11.7992 26.1006 11.7338 26.0333 11.6833C25.9661 11.6329 25.888 11.5988 25.8052 11.5837C25.7225 11.5687 25.6374 11.5731 25.5567 11.5967V11.575ZM34.5267 13.4167L28.0267 11.5642C27.9459 11.5406 27.8608 11.5362 27.7781 11.5512C27.6954 11.5663 27.6173 11.6004 27.55 11.6508C27.4827 11.7013 27.4281 11.7667 27.3905 11.8419C27.3529 11.9171 27.3333 12.0001 27.3333 12.0842V28.3342C27.3333 28.4514 27.3713 28.5654 27.4417 28.6592C27.512 28.7529 27.6108 28.8214 27.7233 28.8542L34.2233 30.7067H34.375C34.5187 30.7067 34.6564 30.6496 34.758 30.548C34.8596 30.4464 34.9167 30.3087 34.9167 30.165V13.9583C34.9215 13.8375 34.8857 13.7185 34.815 13.6203C34.7443 13.5221 34.6428 13.4504 34.5267 13.4167Z" fill="#303130"/>
</svg>
