<svg width="24" height="24" viewBox="0 0 24 24" fill="none" xmlns="http://www.w3.org/2000/svg">
<path fill-rule="evenodd" clip-rule="evenodd" d="M3 11.25C3 6.69365 6.69365 3 11.25 3C15.8063 3 19.5 6.69364 19.5 11.25C19.5 13.2581 18.7825 15.0987 17.5899 16.5293L21.2803 20.2197C21.5732 20.5126 21.5732 20.9874 21.2803 21.2803C20.9874 21.5732 20.5126 21.5732 20.2197 21.2803L16.5293 17.5899C15.0987 18.7825 13.2581 19.5 11.25 19.5C6.69364 19.5 3 15.8063 3 11.25ZM11.25 4.5C7.52207 4.5 4.5 7.52207 4.5 11.25C4.5 14.9779 7.52208 18 11.25 18C14.9779 18 18 14.9779 18 11.25C18 7.52208 14.9779 4.5 11.25 4.5Z" fill="#4F5454"/>
</svg>
