<svg width="24" height="24" viewBox="0 0 24 24" fill="none" xmlns="http://www.w3.org/2000/svg">
<path d="M7.99199 4.787C8.49599 4.507 8.91199 4.077 9.09399 3.53L9.48199 2.368C9.61463 1.96975 9.86922 1.62333 10.2097 1.37781C10.5501 1.13229 10.9592 1.00011 11.379 1H12.621C13.0407 1.00011 13.4498 1.13229 13.7903 1.37781C14.1308 1.62333 14.3853 1.96975 14.518 2.368L14.906 3.53C15.088 4.077 15.504 4.507 16.008 4.787C16.086 4.831 16.163 4.876 16.24 4.922C16.735 5.219 17.316 5.364 17.881 5.249L19.083 5.003C19.4943 4.9189 19.9216 4.96637 20.3045 5.13867C20.6873 5.31097 21.0062 5.59936 21.216 5.963L21.836 7.038C22.046 7.40147 22.1363 7.82179 22.0941 8.23943C22.0519 8.65707 21.8794 9.05085 21.601 9.365L20.786 10.284C20.404 10.714 20.239 11.289 20.248 11.864C20.25 11.954 20.25 12.045 20.248 12.136C20.239 12.711 20.404 13.286 20.786 13.716L21.601 14.636C21.8793 14.95 22.0519 15.3435 22.0943 15.7609C22.1366 16.1784 22.0466 16.5985 21.837 16.962L21.216 18.038C21.0062 18.4016 20.6873 18.69 20.3045 18.8623C19.9216 19.0346 19.4943 19.0821 19.083 18.998L17.881 18.751C17.316 18.636 16.735 18.781 16.241 19.078C16.1641 19.1242 16.0864 19.1693 16.008 19.213C15.504 19.493 15.088 19.923 14.906 20.47L14.518 21.633C14.3852 22.0311 14.1305 22.3773 13.7901 22.6226C13.4496 22.8679 13.0406 23 12.621 23H11.379C10.9594 23 10.5504 22.8679 10.2099 22.6226C9.86946 22.3773 9.61481 22.0311 9.48199 21.633L9.09399 20.47C8.91199 19.923 8.49599 19.493 7.99199 19.213C7.91394 19.1692 7.8366 19.1242 7.75999 19.078C7.26499 18.781 6.68399 18.636 6.11899 18.751L4.91699 18.997C4.50568 19.0811 4.07834 19.0336 3.69552 18.8613C3.31269 18.689 2.99378 18.4006 2.78399 18.037L2.16399 16.962C1.95401 16.5985 1.86371 16.1782 1.90589 15.7606C1.94806 15.3429 2.12058 14.9491 2.39899 14.635L3.21399 13.716C3.59599 13.286 3.76099 12.711 3.75199 12.136C3.75055 12.0453 3.75055 11.9547 3.75199 11.864C3.76099 11.289 3.59599 10.714 3.21399 10.284L2.39899 9.364C2.12064 9.05005 1.94808 8.65651 1.90573 8.23907C1.86337 7.82164 1.95337 7.40146 2.16299 7.038L2.78399 5.962C2.99378 5.59836 3.31269 5.30997 3.69552 5.13767C4.07834 4.96537 4.50568 4.9179 4.91699 5.002L6.11899 5.249C6.68399 5.364 7.26499 5.219 7.75899 4.922C7.83591 4.87573 7.91359 4.83072 7.99199 4.787Z" fill="#978FFA"/>
<path fill-rule="evenodd" clip-rule="evenodd" d="M12 15C12.7956 15 13.5587 14.6839 14.1213 14.1213C14.6839 13.5587 15 12.7956 15 12C15 11.2044 14.6839 10.4413 14.1213 9.87868C13.5587 9.31607 12.7956 9 12 9C11.2044 9 10.4413 9.31607 9.87868 9.87868C9.31607 10.4413 9 11.2044 9 12C9 12.7956 9.31607 13.5587 9.87868 14.1213C10.4413 14.6839 11.2044 15 12 15Z" fill="#F8F9F9"/>
</svg>
