<svg width="22" height="22" viewBox="0 0 22 22" fill="none" xmlns="http://www.w3.org/2000/svg">
<g id="Search" clip-path="url(#clip0_1612_1997)">
<path id="Vector" d="M21.3579 21.3579C21.1664 21.5494 20.9391 21.7014 20.6889 21.8051C20.4387 21.9088 20.1705 21.9621 19.8997 21.9621C19.6289 21.9621 19.3607 21.9088 19.1105 21.8051C18.8603 21.7014 18.6329 21.5494 18.4415 21.3579L14.8019 17.7183C13.3045 18.6766 11.5349 19.25 9.625 19.25C4.30925 19.25 0 14.9407 0 9.625C0 4.30925 4.30925 0 9.625 0C14.9407 0 19.25 4.30925 19.25 9.625C19.25 11.5349 18.6766 13.3045 17.7183 14.8019L21.3579 18.4415C21.5494 18.6329 21.7014 18.8603 21.8051 19.1105C21.9088 19.3607 21.9621 19.6289 21.9621 19.8997C21.9621 20.1705 21.9088 20.4387 21.8051 20.6889C21.7014 20.9391 21.5494 21.1664 21.3579 21.3579ZM9.625 2.75C5.82862 2.75 2.75 5.82725 2.75 9.625C2.75 13.4227 5.82862 16.5 9.625 16.5C13.4227 16.5 16.5 13.4227 16.5 9.625C16.5 5.82725 13.4227 2.75 9.625 2.75Z" fill="#484B4A"/>
</g>
<defs>
<clipPath id="clip0_1612_1997">
<rect width="22" height="22" fill="white"/>
</clipPath>
</defs>
</svg>
