<svg width="26" height="26" viewBox="0 0 26 26" fill="none" xmlns="http://www.w3.org/2000/svg">
<path fill-rule="evenodd" clip-rule="evenodd" d="M4.39429 11.6848C4.39429 7.12846 8.08793 3.43481 12.6443 3.43481C17.2006 3.43481 20.8943 7.12846 20.8943 11.6848C20.8943 13.6929 20.1768 15.5335 18.9842 16.9641L22.6746 20.6545C22.9675 20.9474 22.9675 21.4223 22.6746 21.7151C22.3817 22.008 21.9069 22.008 21.614 21.7151L17.9236 18.0248C16.4929 19.2173 14.6524 19.9348 12.6443 19.9348C8.08793 19.9348 4.39429 16.2411 4.39429 11.6848ZM12.6443 4.93481C8.91636 4.93481 5.89429 7.95689 5.89429 11.6848C5.89429 15.4127 8.91636 18.4348 12.6443 18.4348C16.3722 18.4348 19.3943 15.4127 19.3943 11.6848C19.3943 7.95689 16.3722 4.93481 12.6443 4.93481Z" fill="#484B4A"/>
</svg>
