<svg width="32" height="32" viewBox="0 0 32 32" fill="none" xmlns="http://www.w3.org/2000/svg">
<g id="Vector">
<path d="M7.16539e-06 16C7.16539e-06 7.16344 7.16345 0 16 0C24.8366 0 32 7.16344 32 16C32 24.8366 24.8366 32 16 32C7.16345 32 7.16539e-06 24.8366 7.16539e-06 16Z" fill="#303130"/>
<path d="M16 0C12.8355 0 9.74207 0.938383 7.11088 2.69649C4.4797 4.45459 2.42894 6.95345 1.21793 9.87706C0.00693274 12.8007 -0.309921 16.0177 0.307443 19.1214C0.924806 22.2251 2.44866 25.0761 4.6863 27.3137C6.92394 29.5513 9.77486 31.0752 12.8786 31.6926C15.9823 32.3099 19.1993 31.9931 22.1229 30.7821C25.0466 29.5711 27.5454 27.5203 29.3035 24.8891C31.0616 22.2579 32 19.1645 32 16C31.9952 11.758 30.3079 7.69113 27.3084 4.69159C24.3089 1.69205 20.242 0.00479943 16 0ZM16 29.8667C13.2574 29.8667 10.5765 29.0534 8.2961 27.5297C6.01574 26.006 4.23841 23.8403 3.18888 21.3065C2.13934 18.7727 1.86474 15.9846 2.39978 13.2947C2.93483 10.6049 4.2555 8.13407 6.19479 6.19479C8.13408 4.2555 10.6049 2.93483 13.2948 2.39978C15.9846 1.86473 18.7727 2.13933 21.3065 3.18887C23.8403 4.23841 26.006 6.01573 27.5297 8.29609C29.0534 10.5765 29.8667 13.2574 29.8667 16C29.8624 19.6764 28.4001 23.2009 25.8005 25.8005C23.201 28.4001 19.6764 29.8624 16 29.8667Z" fill="#ABB5B0"/>
<path d="M21.6 12H10.4C10.1878 12 9.98435 12.0843 9.83432 12.2343C9.68429 12.3843 9.6 12.5878 9.6 12.8C9.6 13.0122 9.68429 13.2157 9.83432 13.3657C9.98435 13.5157 10.1878 13.6 10.4 13.6H11.2V20C11.2 20.6365 11.4529 21.247 11.9029 21.6971C12.353 22.1471 12.9635 22.4 13.6 22.4H18.4C19.0365 22.4 19.647 22.1471 20.0971 21.6971C20.5471 21.247 20.8 20.6365 20.8 20V13.6H21.6C21.8122 13.6 22.0157 13.5157 22.1657 13.3657C22.3157 13.2157 22.4 13.0122 22.4 12.8C22.4 12.5878 22.3157 12.3843 22.1657 12.2343C22.0157 12.0843 21.8122 12 21.6 12ZM19.2 20C19.2 20.2122 19.1157 20.4157 18.9657 20.5657C18.8157 20.7157 18.6122 20.8 18.4 20.8H13.6C13.3878 20.8 13.1843 20.7157 13.0343 20.5657C12.8843 20.4157 12.8 20.2122 12.8 20V13.6H19.2V20ZM14.4 11.2H17.6C17.8122 11.2 18.0157 11.1157 18.1657 10.9657C18.3157 10.8157 18.4 10.6122 18.4 10.4C18.4 10.1878 18.3157 9.98434 18.1657 9.83431C18.0157 9.68428 17.8122 9.6 17.6 9.6H14.4C14.1878 9.6 13.9843 9.68428 13.8343 9.83431C13.6843 9.98434 13.6 10.1878 13.6 10.4C13.6 10.6122 13.6843 10.8157 13.8343 10.9657C13.9843 11.1157 14.1878 11.2 14.4 11.2Z" fill="#ABB5B0"/>
</g>
</svg>
