<svg width="16" height="20" viewBox="0 0 16 20" fill="none" xmlns="http://www.w3.org/2000/svg">
<g id="Location Pin">
<path id="Vector" d="M7.16667 9.91658V14.1666C7.16667 14.6666 7.5 14.9999 8 14.9999C8.5 14.9999 8.83333 14.6666 8.83333 14.1666V9.91658C11.0833 9.41658 12.5833 7.24991 12.0833 4.99991C11.5833 2.74991 9.41667 1.24991 7.16667 1.74991C4.91667 2.24991 3.41667 4.41658 3.91667 6.66658C4.25 8.33325 5.5 9.58324 7.16667 9.91658ZM11.5 11.9999C11.0833 11.9166 10.5833 12.1666 10.5 12.6666C10.4167 13.1666 10.6667 13.5832 11.1667 13.6666C13.25 14.0832 13.8333 14.8332 13.8333 14.9999C13.8333 15.4999 11.75 16.6666 8 16.6666C4.25 16.6666 2.16667 15.4999 2.16667 14.9999C2.16667 14.8332 2.83333 14.0832 4.83333 13.6666C5.25 13.5832 5.58333 13.0832 5.5 12.6666C5.41667 12.2499 4.91667 11.9166 4.5 11.9999C2 12.5832 0.5 13.6666 0.5 14.9999C0.5 17.1666 4.25 18.3332 8 18.3332C11.75 18.3332 15.5 17.1666 15.5 14.9999C15.5 13.6666 14.0833 12.5832 11.5 11.9999Z" fill="#F8F9F9"/>
</g>
</svg>
