<svg width="45" height="61" viewBox="0 0 45 61" fill="none" xmlns="http://www.w3.org/2000/svg">
<path id="Vector" d="M21.3654 59.1475L21.3617 59.1442C20.9641 58.7792 15.8839 54.053 10.9111 47.4209C5.90562 40.7451 1.16675 32.3425 1.16675 24.5916C1.16675 18.4671 3.43066 12.6066 7.44022 8.29629C11.4475 3.98846 16.8664 1.58331 22.5001 1.58331C28.1337 1.58331 33.5527 3.98846 37.5599 8.29629C41.5695 12.6066 43.8334 18.4671 43.8334 24.5916C43.8334 32.3425 39.0945 40.7451 34.0891 47.4209C29.1163 54.053 24.0361 58.7792 23.6385 59.1442L23.6348 59.1475C23.309 59.4495 22.9061 59.6048 22.5017 59.6041L22.4985 59.6041C22.0941 59.6048 21.6911 59.4495 21.3654 59.1475Z" fill="#54CA94" stroke="#2C8C60" stroke-width="2"/>
</svg>
