<svg width="29" height="28" viewBox="0 0 29 28" fill="none" xmlns="http://www.w3.org/2000/svg">
<g id="Trash Bin">
<path id="Vector" d="M22.5157 6.55167L22.4459 21.8517C22.4342 23.0276 21.6657 24.2041 20.1285 25.1008C17.0191 26.9056 11.965 26.9056 8.83236 25.1008C7.26025 24.1921 6.47998 23.0048 6.47998 21.805L6.56153 6.52838C6.56153 7.70427 7.35342 8.89216 8.91391 9.78889C12.0349 11.5937 17.089 11.5937 20.1983 9.78889C21.7471 8.89216 22.5157 7.72762 22.5157 6.55167Z" fill="#D7D7D7"/>
<g id="Group">
<path id="Vector_2" d="M23.0182 6.30449L22.9439 8.21396C22.9315 9.46354 22.1148 10.7137 20.4813 11.6666C17.1772 13.5845 11.8064 13.5845 8.47755 11.6666C6.80693 10.7011 5.97778 9.43938 5.97778 8.16438L6.0644 6.27972C6.0644 7.52931 6.90587 8.7916 8.56417 9.74451C11.8806 11.6624 17.2515 11.6624 20.5555 9.74451C22.2015 8.7916 23.0182 7.55407 23.0182 6.30449Z" fill="#4F4D4D"/>
<path id="Vector_3" d="M20.5133 2.80041C23.8397 4.72085 23.8573 7.83185 20.5606 9.74765C17.2559 11.6682 11.8846 11.6684 8.55829 9.74792C5.2398 7.83206 5.22262 4.72085 8.52736 2.8003C11.8241 0.884501 17.1949 0.884501 20.5133 2.80041Z" fill="#686868"/>
</g>
<path id="Vector_4" d="M19.6433 13.7294C19.301 13.7294 19.0235 14.0069 19.0235 14.3492V23.5068C19.0235 23.8492 19.301 24.1266 19.6433 24.1266C19.9857 24.1266 20.2631 23.8492 20.2631 23.5068V14.3492C20.2632 14.0069 19.9857 13.7294 19.6433 13.7294ZM16.213 14.9272C15.8707 14.9272 15.5932 15.2047 15.5932 15.547V24.7046C15.5932 25.0471 15.8707 25.3244 16.213 25.3244C16.5554 25.3244 16.8329 25.047 16.8329 24.7046V15.547C16.8329 15.2047 16.5554 14.9272 16.213 14.9272ZM12.7828 14.9272C12.4404 14.9272 12.163 15.2047 12.163 15.547V24.7046C12.163 25.0471 12.4404 25.3244 12.7828 25.3244C13.1251 25.3244 13.4026 25.047 13.4026 24.7046V15.547C13.4026 15.2047 13.125 14.9272 12.7828 14.9272ZM9.35247 13.7294C9.01014 13.7294 8.73267 14.0069 8.73267 14.3492V23.5068C8.73267 23.8492 9.01014 24.1266 9.35247 24.1266C9.69479 24.1266 9.97232 23.8492 9.97232 23.5068V14.3492C9.97227 14.0069 9.69479 13.7294 9.35247 13.7294Z" fill="#E8E8E8"/>
<g id="Group_2">
<g id="Group_3">
<path id="Vector_5" d="M16.5036 5.00714L16.4992 6.4226L15.6821 6.89769L15.6865 5.48223L16.5036 5.00714Z" fill="#929393"/>
<path id="Vector_6" d="M15.6866 5.48224L15.6822 6.89769L12.5764 5.10424L12.5802 3.68878L15.6866 5.48224Z" fill="#BFBFBF"/>
<path id="Vector_7" d="M16.5038 5.00714L15.6867 5.48223L12.5803 3.68877L13.3974 3.21368L16.5038 5.00714Z" fill="#E8E8E8"/>
</g>
</g>
</g>
</svg>
