<svg width="12" height="16" viewBox="0 0 12 16" fill="none" xmlns="http://www.w3.org/2000/svg">
<path id="Vector" d="M11.3572 7.74845L8.75178 6.96748L7.85929 5.01269C7.91605 4.67774 7.85048 4.34415 7.69049 4.05871L7.8791 3.7146C7.88601 3.71465 7.89267 3.71556 7.89962 3.71556C8.97211 3.71556 9.84155 2.8838 9.84155 1.85776C9.84155 0.831759 8.97211 0 7.89962 0C6.82714 0 5.95765 0.831759 5.95765 1.85776C5.95765 2.30004 6.11989 2.70573 6.38959 3.02479L6.25745 3.26604C5.94532 3.27547 5.09274 3.57553 4.95174 3.64901L2.3209 5.01985C2.14568 5.08763 1.99666 5.20557 1.89425 5.35753C1.8283 5.45248 1.78226 5.55878 1.75868 5.67053L0.905286 8.43999C0.762149 8.9045 1.03976 9.3921 1.52536 9.52908C2.01091 9.66602 2.5206 9.40044 2.66379 8.93593L3.43376 6.43706L4.22525 6.02466L3.46414 8.28215C3.35552 8.6043 3.3679 8.93529 3.47437 9.23262L0.166126 14.3617C-0.158575 14.8681 0.00727529 15.5304 0.53654 15.8411C1.0658 16.1517 1.75811 15.9931 2.08291 15.4867L5.29768 10.5034L6.71386 12.0767L6.96914 15.0092C7.02066 15.6012 7.56411 16.0412 8.1829 15.9918C8.80173 15.9425 9.26157 15.4227 9.21005 14.8307L8.93392 11.6592C8.91884 11.4835 8.85859 11.3141 8.75854 11.166C8.71239 11.0394 8.64178 10.9221 8.55041 10.8204L6.63834 8.69609L7.02147 7.55963L7.2237 8.0025C7.27816 8.1215 7.35973 8.22734 7.46245 8.31231C7.56735 8.41391 7.69672 8.48932 7.8392 8.53192L10.809 9.42208C11.2921 9.56689 11.8064 9.30961 11.9578 8.84747C12.1092 8.38533 11.8403 7.89322 11.3572 7.74845Z" fill="#F8F9F9"/>
</svg>
