<svg width="48" height="48" viewBox="0 0 48 48" fill="none" xmlns="http://www.w3.org/2000/svg">
<g id="Lamp" clip-path="url(#clip0_1891_11410)">
<g id="Group">
<path id="Vector" d="M24 47.6719C37.0736 47.6719 47.6719 37.0736 47.6719 24C47.6719 10.9264 37.0736 0.328125 24 0.328125C10.9264 0.328125 0.328125 10.9264 0.328125 24C0.328125 37.0736 10.9264 47.6719 24 47.6719Z" fill="#90DFAA"/>
<path id="Vector_2" d="M7.06885 40.5375C11.372 44.9437 17.3626 47.6719 24.0001 47.6719C30.6376 47.6719 36.6376 44.9344 40.9314 40.5375H7.06885Z" fill="#2C9984"/>
<path id="Vector_3" d="M11.5126 23.1937L25.2563 37.6781H23.0532L9.8157 23.7281C9.5157 23.4094 9.52507 22.9219 9.83445 22.6125L23.2782 9.16874C23.5876 8.85936 24.1032 8.85936 24.4126 9.16874C24.7219 9.47811 24.7219 9.99374 24.4126 10.3031L11.5126 23.1937Z" fill="#324A5E"/>
<path id="Vector_4" d="M30.9095 19.875C32.6077 19.875 33.9845 18.4983 33.9845 16.8C33.9845 15.1017 32.6077 13.725 30.9095 13.725C29.2112 13.725 27.8345 15.1017 27.8345 16.8C27.8345 18.4983 29.2112 19.875 30.9095 19.875Z" fill="white"/>
<path id="Vector_5" d="M21.9189 14.325C21.872 14.2406 21.8907 14.1281 21.9657 14.0625L28.172 7.85627C28.2376 7.79065 28.3501 7.7719 28.4345 7.8094L35.7751 11.5219C35.9157 11.5875 35.9439 11.775 35.8314 11.8875L25.997 21.7219C25.8845 21.8344 25.7064 21.8063 25.6314 21.6656L21.9189 14.325Z" fill="#FF7058"/>
<path id="Vector_6" d="M21.6938 9.52498L23.6345 7.58435C23.822 7.39685 24.122 7.39685 24.3095 7.58435L26.372 9.64685L23.7563 12.2625L21.6938 10.2C21.5063 10.0125 21.5063 9.71248 21.6938 9.52498Z" fill="#F1543F"/>
<path id="Vector_7" d="M18.9187 37.6781H29.5687C30.328 37.6781 30.9468 38.2969 30.9468 39.0562V40.5562H17.5405V39.0562C17.5499 38.2969 18.1593 37.6781 18.9187 37.6781Z" fill="#2B3B4E"/>
<path id="Vector_8" d="M10.9313 25.5562C12.2102 25.5562 13.247 24.5195 13.247 23.2406C13.247 21.9617 12.2102 20.925 10.9313 20.925C9.65246 20.925 8.61572 21.9617 8.61572 23.2406C8.61572 24.5195 9.65246 25.5562 10.9313 25.5562Z" fill="white"/>
<path id="Vector_9" d="M10.9312 24.4219C11.5836 24.4219 12.1125 23.893 12.1125 23.2406C12.1125 22.5882 11.5836 22.0594 10.9312 22.0594C10.2789 22.0594 9.75 22.5882 9.75 23.2406C9.75 23.893 10.2789 24.4219 10.9312 24.4219Z" fill="#324A5E"/>
</g>
</g>
<defs>
<clipPath id="clip0_1891_11410">
<rect width="48" height="48" fill="white"/>
</clipPath>
</defs>
</svg>
