<svg width="48" height="48" viewBox="0 0 48 48" fill="none" xmlns="http://www.w3.org/2000/svg">
<g id="clothes" clip-path="url(#clip0_1891_11618)">
<path id="Vector" d="M47.2595 24C47.2595 11.1562 36.8439 0.740601 24.0001 0.740601C11.1563 0.740601 0.740723 11.1562 0.740723 24C0.740723 36.8437 11.1563 47.2594 24.0001 47.2594C36.8439 47.2594 47.2595 36.8437 47.2595 24Z" fill="#BADDA4"/>
<g id="Group 1321314335">
<path id="Vector_2" d="M23.9998 15.8469C16.0404 15.8469 10.1248 12.0031 10.0591 11.9656C9.97477 11.9094 9.94665 11.7969 10.0029 11.7031C10.0591 11.6188 10.1716 11.5906 10.2654 11.6469C10.3216 11.6844 16.1529 15.4625 23.9998 15.4625C31.856 15.4625 38.6904 11.675 38.756 11.6375C38.8498 11.5906 38.9623 11.6188 39.0091 11.7125C39.056 11.8063 39.0279 11.9188 38.9341 11.9656C38.8779 12.0125 31.9591 15.8469 23.9998 15.8469Z" fill="black"/>
<path id="Vector_3" d="M31.4717 15.6219L27.7967 14.5438C27.7967 14.5438 25.9498 14.225 24.2436 14.1875H23.8686C22.1623 14.225 20.3154 14.5438 20.3154 14.5438L16.6404 15.6219L10.8936 21.275L15.1404 25.6156L16.6873 24.125V37.5031C16.6873 38.3188 20.1654 38.75 23.7748 38.7781H24.3373C27.9561 38.75 31.4248 38.3188 31.4248 37.5031V24.125L32.9623 25.6156L37.2092 21.275L31.4717 15.6219Z" fill="#FF7058"/>
<path id="Vector_4" d="M27.6189 14.5156C27.0846 14.4313 25.3877 14.1875 23.9064 14.1875C22.5939 14.1875 21.0846 14.4125 20.3721 14.525C20.5033 14.7219 20.5408 14.9656 20.4846 15.1906C21.2346 15.0687 22.6502 14.8719 23.8971 14.8719C25.2658 14.8719 26.8033 15.0781 27.4596 15.1813C27.4314 15.0594 27.4314 14.9281 27.4689 14.7875C27.5064 14.6937 27.5533 14.6 27.6189 14.5156Z" fill="white"/>
<path id="Vector_5" d="M37.2189 21.2844L36.6752 20.75L32.3814 25.0438L32.9721 25.6156L37.2189 21.2844ZM10.9033 21.2844L11.4377 20.75L15.7408 25.0438L15.1502 25.6156L10.9033 21.2844Z" fill="white"/>
<path id="Vector_6" d="M24.0004 18.4063C26.0441 18.4063 27.7035 16.2406 27.7879 14.5438C27.7598 14.5344 27.4691 14.4875 27.0379 14.4313C27.0379 14.4781 27.0473 14.5344 27.0473 14.5813C27.0473 15.95 25.6879 17.7875 24.0004 17.7875C22.3129 17.7875 20.9535 15.95 20.9535 14.5813C20.9535 14.5344 20.9535 14.4781 20.9629 14.4313C20.6441 14.4781 20.3816 14.525 20.2129 14.5531C20.3066 16.25 21.966 18.4063 24.0004 18.4063Z" fill="white"/>
</g>
<g id="Group">
<path id="Vector_7" d="M19.2562 13.8563H18.5718V12.3281L18.7593 10.9219H19.0687L19.2562 12.3281V13.8563ZM29.428 13.8563H28.7437V12.3281L28.9312 10.9219H29.2405L29.428 12.3281V13.8563Z" fill="#123F2D"/>
</g>
</g>
<defs>
<clipPath id="clip0_1891_11618">
<rect width="48" height="48" fill="white"/>
</clipPath>
</defs>
</svg>
